<svg id="Layer_1" data-name="Layer 1" xmlns="http://www.w3.org/2000/svg" viewBox="0 0 459.4 400.6"><defs><style>.cls-1{fill:#6b8199}</style></defs><title>ic_footer_web</title><path class="cls-1" d="M1910.1 1969.3a7 7 0 0 1-5-12l20.3-20.3a7 7 0 0 1 9.9 9.9l-20.3 20.3a7 7 0 0 1-4.9 2.1M1916.2 2011.2a7 7 0 0 1-4.9-12l56-56a7 7 0 0 1 9.9 9.9l-56 56a7 7 0 0 1-5 2.1" transform="translate(-1853.9 -1886.1)"/><path class="cls-1" d="M2279.3 2219.9h-391.4a34 34 0 0 1-33.9-34V1920a34 34 0 0 1 33.9-34h391.5a34 34 0 0 1 33.9 34v266a34 34 0 0 1-33.9 34m-391.5-319.8a20 20 0 0 0-19.9 20V2186a20 20 0 0 0 19.9 20h391.5a20 20 0 0 0 19.9-20v-266a20 20 0 0 0-19.9-20z" transform="translate(-1853.9 -1886.1)"/><path class="cls-1" d="M2083.6 2185.9a12.4 12.4 0 1 1 12.4-12.4 12.4 12.4 0 0 1-12.4 12.4M2140.8 2286.6h-114.4a7 7 0 0 1-6.9-8.3l12.2-65.9a7 7 0 0 1 6.9-5.7h90a7 7 0 0 1 6.9 5.7l12.1 65.4a6.8 6.8 0 0 1 .2 1.8 7 7 0 0 1-7 7m-106-14h97.6l-9.6-51.9h-78.4z" transform="translate(-1853.9 -1886.1)"/><path class="cls-1" d="M2167 2286.6h-166.8a7 7 0 1 1 0-14H2167a7 7 0 1 1 0 14M2306.3 2144.3h-445.4a7 7 0 0 1 0-14h445.4a7 7 0 0 1 0 14" transform="translate(-1853.9 -1886.1)"/></svg>