<svg id="Layer_1" data-name="Layer 1" xmlns="http://www.w3.org/2000/svg" viewBox="0 0 230.4 398.5"><defs><style>.cls-1{fill:#6b8199}</style></defs><title>ic_footer_android</title><path class="cls-1" d="M2159.7 1351.9h-152.2a39.1 39.1 0 0 1-39.1-39.1V992.4a39.1 39.1 0 0 1 39.1-39.1h152.2a39.1 39.1 0 0 1 39.1 39.1v320.4a39.1 39.1 0 0 1-39.1 39.1m-152.2-384.6a25.1 25.1 0 0 0-25.1 25.1v320.4a25.1 25.1 0 0 0 25.1 25.1h152.2a25.1 25.1 0 0 0 25.1-25.1V992.4a25.1 25.1 0 0 0-25.1-25.1z" transform="translate(-1968.4 -953.3)"/><path class="cls-1" d="M2105.6 1001.1h-47a7 7 0 0 1 0-14h47a7 7 0 0 1 0 14M2189.6 1283.9h-212a7 7 0 0 1 0-14h211.9a7 7 0 0 1 0 14M2116.8 1315.9h-66.4c-1.2 0-2.2-3.1-2.2-7s1-7 2.2-7h66.4c1.2 0 2.2 3.1 2.2 7s-1 7-2.2 7" transform="translate(-1968.4 -953.3)"/></svg>